<svg width="1024" height="1024" viewBox="0 0 1024 1024" fill="none" xmlns="http://www.w3.org/2000/svg">
<g clip-path="url(#clip0_605_196)">
<path d="M0 0H1024V1024H0V0Z" fill="#FEFEFE"/>
<path d="M875.681 473.394C869.613 461.321 867.629 462.92 856.192 457.949C855.278 457.552 853.707 457.056 853.614 455.982C859.959 452.213 870.267 452.838 873.747 445.065C875.589 440.954 876.438 435.89 878.925 432.16L879.609 432.432C882.178 439.567 884.487 447.99 891.884 451.518C895.873 453.419 901.503 453.955 904.87 456.831C899.979 463.176 885.994 455.864 880.497 479.358C880.252 480.682 880.077 481.839 879.379 483.019L878.656 482.936C877.067 480.28 876.546 476.423 875.681 473.394Z" fill="#D7745D"/>
<path d="M878.624 436.699C881.56 444.062 883.875 450.253 891.724 453.707C894.355 454.865 897.102 455.866 899.839 456.742C891.281 459.335 885.715 462.061 881.374 470.25C880.367 472.149 879.723 474.327 878.665 476.154L877.206 471.986C875.267 466.181 873.109 462.276 867.382 459.449C865.017 458.282 862.351 457.493 859.86 456.628C866.619 453.951 872.806 451.951 876.072 444.787C877.209 442.292 878.028 439.374 878.624 436.699Z" fill="#FEFEFE"/>
<path d="M116.933 558.113C130.437 550.035 128.703 537.668 131.94 535.829C132.225 535.988 132.561 536.08 132.797 536.308C133.382 536.875 136.602 549.826 141.147 554.423C144.352 557.664 156.805 559.906 157.824 563.017C156.898 564.117 155.665 564.228 154.333 564.535C148.123 565.733 141.851 568.744 138.217 574.09C135.123 578.64 134.844 584.043 132.221 588.531C131.647 588.508 131.897 588.57 131.307 588.294C130.424 587.882 130.33 585.517 130.169 584.596C129.177 578.918 126.172 573.119 121.847 569.301C118.398 566.256 112.822 563.799 108.13 563.998C106.869 563.512 106.583 563.525 105.851 562.418C107.022 560.269 114.372 558.938 116.933 558.113Z" fill="#F5D14A"/>
<path d="M132.586 541.918C135.597 550.779 138.312 556.204 147.071 560.541C148.66 561.329 150.272 562.066 151.907 562.753C144.622 564.963 138.872 568.153 135.125 575.124C134.026 577.17 133.07 579.281 132.255 581.456C131.113 579.457 130.377 577.119 129.275 575.058C125.003 567.064 119.527 565.057 111.255 562.576C112.84 562.084 114.309 561.428 115.82 560.744C122.532 558.326 126.686 554.637 129.758 548.168C130.725 546.095 131.667 544.012 132.586 541.918Z" fill="#FEFEFE"/>
<path d="M211.971 647.267C213.771 648.235 215.246 649.397 216.75 650.763C228.289 661.245 235.891 676.92 236.462 692.545C237.267 714.596 226.934 730.597 212.596 746.212C212.353 771.453 212.321 796.695 212.501 821.937C219.006 816.197 226.953 809.81 232.196 802.874C232.451 800.707 232.812 798.559 233.28 796.428C233.749 794.297 234.321 792.195 234.997 790.122C235.674 788.048 236.451 786.013 237.329 784.016C238.208 782.019 239.183 780.07 240.254 778.17C248.645 763.585 263.142 753.158 279.337 748.969C285.492 747.377 301.733 744.826 307.207 748.067C308.547 751.639 304.784 761.945 303.397 765.589C297.109 782.102 286.614 794.715 270.286 802.012C260.041 806.591 244.926 809.369 234.142 805.226C226.99 812.025 219.785 818.768 212.527 825.453C212.474 842.802 212.557 860.151 212.776 877.499L224.228 877.507C224.3 877.088 224.379 876.67 224.443 876.25C224.559 875.49 224.64 874.732 224.785 873.976C227.738 858.606 240.892 841.933 253.695 833.406C269.365 822.969 286.929 818.386 305.527 822.088C305.797 833.578 302.718 846.108 297.168 856.162C294.258 861.432 286.683 874.604 280.643 876.337L279.897 875.838C282.176 871.644 286.295 868.397 289.169 864.544C297.739 853.055 301.989 838.39 302.941 824.267C288.566 821.33 274.018 824.845 261.299 831.686C242.993 841.533 232.173 857.946 226.224 877.5C234.49 877.606 255.761 876.515 262.637 878.2L262.45 878.798C260.767 879.567 259.166 880.061 257.31 880.221C254.195 880.489 250.84 880.103 247.694 880.097L224.5 880.081C208.378 880.075 190.662 881.094 174.679 879.569C172.631 873.43 170.661 867.255 167.983 861.355C162.939 850.469 155.681 839.99 146.224 832.492C130.715 820.198 112.503 816.9 93.1765 819.122C93.875 829.094 97.1254 839.458 102.014 848.159C110.148 862.636 123.415 872.822 139.694 876.437C144.296 877.458 149.128 877.287 153.654 878.571L153.808 879.057C152.311 879.632 150.926 879.811 149.327 879.922C136.403 880.82 122.057 874.073 112.595 865.657C98.5678 853.18 91.6454 835.034 90.5266 816.607C106.223 815.462 121.53 815.534 135.923 822.772C158.125 833.936 169.237 854.789 176.814 877.381C187.883 877.673 198.978 877.519 210.051 877.512C209.914 859.941 209.934 842.37 210.11 824.799C204.019 814.405 191.681 799.097 183.416 789.97C181.206 790.493 178.991 791.02 176.76 791.445C161.186 794.416 144.014 792.013 130.827 782.883C117.034 773.334 105.821 755.395 103.599 738.698C103.443 737.525 103.395 736.928 104.18 735.996C111.116 733.639 121.616 734.224 128.77 735.22C129.41 735.306 130.048 735.401 130.685 735.506C131.322 735.611 131.957 735.726 132.59 735.851C133.223 735.976 133.855 736.11 134.484 736.253C135.113 736.397 135.739 736.55 136.364 736.713C136.989 736.876 137.611 737.048 138.23 737.23C138.849 737.411 139.466 737.602 140.079 737.803C140.692 738.004 141.303 738.213 141.91 738.432C142.517 738.651 143.121 738.88 143.721 739.117C144.321 739.354 144.917 739.601 145.51 739.856C146.103 740.112 146.691 740.377 147.276 740.65C147.861 740.923 148.441 741.206 149.017 741.497C149.593 741.788 150.165 742.087 150.732 742.396C151.299 742.705 151.861 743.022 152.418 743.347C152.975 743.672 153.528 744.006 154.075 744.349C154.622 744.692 155.163 745.042 155.7 745.401C156.237 745.76 156.768 746.127 157.293 746.502C157.818 746.877 158.337 747.259 158.851 747.65C159.364 748.041 159.872 748.44 160.374 748.846C160.875 749.252 161.37 749.666 161.859 750.087C162.348 750.508 162.831 750.937 163.307 751.373C163.782 751.809 164.251 752.252 164.714 752.703C165.177 753.153 165.632 753.61 166.08 754.074C166.529 754.539 166.97 755.01 167.404 755.487C167.839 755.964 168.266 756.448 168.685 756.939C169.104 757.43 169.516 757.926 169.92 758.429C170.325 758.932 170.721 759.442 171.11 759.957C171.499 760.472 171.88 760.993 172.253 761.52C172.626 762.047 172.99 762.579 173.347 763.116C173.704 763.654 174.053 764.197 174.393 764.746C174.734 765.294 175.066 765.847 175.389 766.406C175.712 766.965 176.027 767.528 176.333 768.096C176.64 768.664 176.937 769.237 177.226 769.814C180.057 775.453 181.239 781.904 184.663 787.231C187.352 791.415 190.951 795.284 194.104 799.137C199.557 805.67 204.837 812.341 209.943 819.149L209.981 746.345C206.214 741.783 202.284 737.257 198.888 732.409C189.399 718.861 184.843 702.087 187.777 685.638C187.938 684.681 188.123 683.729 188.332 682.781C188.541 681.834 188.773 680.892 189.028 679.956C189.283 679.02 189.561 678.091 189.862 677.168C190.163 676.245 190.486 675.331 190.833 674.425C191.179 673.518 191.547 672.621 191.938 671.733C192.329 670.844 192.741 669.966 193.175 669.099C193.609 668.231 194.064 667.374 194.54 666.529C195.017 665.684 195.514 664.851 196.031 664.03C196.549 663.209 197.087 662.401 197.644 661.607C198.201 660.813 198.778 660.033 199.374 659.267C199.97 658.502 200.584 657.751 201.217 657.016C201.85 656.281 202.501 655.561 203.17 654.858C203.839 654.155 204.524 653.468 205.227 652.799C205.93 652.13 206.648 651.478 207.383 650.845C208.118 650.211 208.868 649.596 209.633 648.999C210.398 648.402 211.177 647.825 211.971 647.267Z" fill="black"/>
<path d="M290.904 749.683C295.588 749.012 300.563 749.427 305.28 749.626C302.352 761.53 298.624 772.792 291.022 782.623C280.972 795.621 266.484 802.334 250.463 804.431C245.192 804.585 240.34 804.149 235.152 803.192C235.959 792.591 240.262 781.622 246.676 773.138C257.542 758.767 273.484 752.102 290.904 749.683Z" fill="#F17C33"/>
<path d="M113.917 737.208C124.935 736.183 136.899 738.465 146.877 743.181C165.904 752.173 174.962 768.706 181.846 787.636C179.217 788.386 176.519 788.881 173.844 789.435C159.608 791.044 145.2 789.379 133.062 781.311C118.047 771.331 109.8 755.277 106.256 737.976C108.775 737.56 111.373 737.433 113.917 737.208Z" fill="#F5D14A"/>
<path d="M212.101 650.392C212.884 650.692 213.627 651.365 214.259 651.912C214.972 652.535 215.669 653.174 216.35 653.831C217.031 654.488 217.696 655.162 218.344 655.851C218.992 656.541 219.622 657.247 220.235 657.968C220.848 658.689 221.443 659.424 222.02 660.175C222.596 660.925 223.154 661.689 223.693 662.468C224.232 663.246 224.751 664.037 225.25 664.84C225.75 665.644 226.23 666.46 226.689 667.287C227.148 668.114 227.587 668.953 228.004 669.802C228.422 670.651 228.819 671.51 229.194 672.379C229.569 673.248 229.923 674.125 230.255 675.011C230.587 675.898 230.897 676.792 231.184 677.693C231.472 678.595 231.737 679.503 231.98 680.418C232.223 681.333 232.443 682.253 232.64 683.178C232.837 684.104 233.011 685.034 233.162 685.968C233.313 686.902 233.441 687.839 233.546 688.78C233.651 689.721 233.733 690.663 233.791 691.608C234.922 712.705 225.269 728.529 211.627 743.66C208.299 740.858 205.116 736.55 202.502 733.032C192.803 719.979 187.38 704.243 189.872 687.891C192.139 673.017 199.925 659.317 212.101 650.392Z" fill="#FEFEFE"/>
<path d="M376.101 592.096C358.828 599.821 336.807 601.752 318.173 599.596C284.038 595.646 251.747 575.341 230.707 548.549C204.355 514.995 190.791 471.115 196.126 428.535C200.346 394.858 216.925 362.066 244.074 341.17C270.284 320.998 302.245 313.562 334.835 317.978C371.111 322.894 402.635 343.963 424.428 372.91C448.36 404.699 459.799 447.009 454.185 486.48C448.787 524.436 430.393 555.752 399.681 578.83C392.561 583.374 384.216 589.619 376.101 592.096Z" fill="black"/>
<path d="M307.772 319.701C308.026 319.664 308.279 319.615 308.535 319.592C339.61 316.772 372.005 328.136 396.19 347.333C428.125 372.681 447.62 410.778 452.016 451.006C455.966 487.15 446.093 524.691 423.106 553.07C402.583 578.408 374.659 593.844 342.205 597.307C342.071 597.329 341.938 597.36 341.802 597.373C309.374 600.596 277.66 587.991 252.971 567.47C220.881 540.799 201.722 500.07 198.097 458.829C195.089 424.617 205.542 387.077 227.844 360.676C248.507 336.215 275.949 322.458 307.772 319.701Z" fill="#FEFEFE"/>
<path d="M311.834 331.215C338.685 328.7 368.857 341.011 389.227 357.847C390.121 358.592 391.006 359.348 391.882 360.115C392.757 360.882 393.623 361.659 394.48 362.446C395.337 363.234 396.183 364.032 397.02 364.841C397.857 365.65 398.684 366.469 399.501 367.298C400.318 368.127 401.124 368.965 401.921 369.814C402.717 370.663 403.503 371.521 404.278 372.389C405.053 373.257 405.818 374.134 406.572 375.021C407.326 375.908 408.069 376.803 408.801 377.708C409.532 378.613 410.253 379.527 410.963 380.449C411.672 381.372 412.37 382.303 413.057 383.243C413.744 384.182 414.419 385.13 415.082 386.086C415.745 387.043 416.397 388.007 417.037 388.979C417.676 389.951 418.304 390.931 418.92 391.918C419.536 392.906 420.14 393.901 420.731 394.903C421.322 395.906 421.901 396.915 422.468 397.932C423.035 398.948 423.589 399.971 424.131 401.002C424.672 402.032 425.201 403.068 425.717 404.111C426.234 405.154 426.737 406.204 427.227 407.259C427.718 408.314 428.195 409.376 428.66 410.443C429.125 411.51 429.576 412.582 430.014 413.661C430.452 414.739 430.877 415.822 431.289 416.911C431.7 417.999 432.099 419.092 432.484 420.191C432.869 421.29 433.24 422.393 433.598 423.5C433.955 424.607 434.299 425.719 434.63 426.835C434.961 427.95 435.278 429.07 435.581 430.194C435.884 431.317 436.174 432.444 436.449 433.575C436.724 434.706 436.986 435.84 437.234 436.977C437.481 438.114 437.715 439.254 437.935 440.397C438.155 441.54 438.361 442.685 438.552 443.833C438.744 444.981 438.922 446.131 439.085 447.284C439.249 448.436 439.399 449.59 439.534 450.746C439.669 451.902 439.79 453.059 439.897 454.218C442.877 486.569 434.49 520.33 413.44 545.517C393.937 568.853 368.962 582.246 338.678 584.894C309.28 586.404 282.311 576.637 260.024 557.526C230.993 532.632 212.653 494.86 209.877 456.753C207.554 424.863 217.159 391.11 238.34 366.857C257.753 344.63 282.529 333.205 311.834 331.215Z" fill="black"/>
<path d="M308.342 334.203C334.746 331.247 363.236 341.393 384.102 357.21C412.286 378.574 431.994 413.157 436.541 448.148C440.829 481.136 433.666 515.186 412.954 541.729C395.15 564.546 370.833 578.428 342.119 581.899C341.248 581.978 340.376 582.046 339.503 582.104C338.63 582.161 337.756 582.208 336.882 582.244C336.008 582.28 335.133 582.305 334.258 582.32C333.383 582.335 332.509 582.338 331.634 582.331C330.759 582.324 329.885 582.307 329.01 582.278C328.135 582.25 327.261 582.211 326.388 582.161C325.515 582.111 324.642 582.05 323.77 581.979C322.898 581.908 322.027 581.826 321.157 581.733C320.287 581.64 319.418 581.537 318.551 581.423C317.684 581.308 316.818 581.183 315.953 581.048C315.089 580.913 314.227 580.767 313.366 580.61C312.505 580.454 311.646 580.287 310.789 580.109C309.932 579.932 309.078 579.744 308.226 579.545C307.374 579.346 306.525 579.137 305.678 578.917C304.831 578.698 303.987 578.468 303.146 578.227C302.305 577.987 301.466 577.737 300.631 577.476C299.796 577.215 298.965 576.943 298.136 576.662C297.307 576.381 296.483 576.089 295.662 575.788C294.841 575.487 294.023 575.175 293.209 574.853C292.396 574.531 291.586 574.199 290.781 573.858C289.975 573.517 289.174 573.165 288.377 572.804C287.58 572.443 286.788 572.072 286 571.691C285.213 571.31 284.43 570.92 283.652 570.52C282.873 570.12 282.1 569.71 281.332 569.291C280.564 568.872 279.801 568.444 279.044 568.006C278.287 567.569 277.535 567.122 276.788 566.665C276.041 566.209 275.301 565.744 274.566 565.269C273.831 564.795 273.101 564.312 272.378 563.819C271.655 563.327 270.938 562.826 270.227 562.316C269.516 561.806 268.812 561.287 268.113 560.76C267.415 560.233 266.724 559.697 266.039 559.153C265.354 558.608 264.675 558.056 264.004 557.495C263.096 556.732 262.197 555.957 261.308 555.171C260.419 554.386 259.539 553.589 258.669 552.782C257.8 551.975 256.94 551.157 256.09 550.329C255.241 549.5 254.401 548.662 253.572 547.813C252.743 546.964 251.924 546.105 251.116 545.236C250.308 544.367 249.511 543.488 248.724 542.6C247.938 541.711 247.163 540.813 246.398 539.906C245.633 538.998 244.88 538.081 244.138 537.155C243.396 536.229 242.666 535.294 241.947 534.35C241.228 533.407 240.52 532.454 239.824 531.493C239.129 530.532 238.445 529.562 237.773 528.584C237.101 527.606 236.441 526.62 235.793 525.625C235.146 524.631 234.51 523.629 233.887 522.619C233.264 521.609 232.653 520.592 232.055 519.567C231.457 518.542 230.871 517.51 230.298 516.471C229.725 515.432 229.165 514.386 228.618 513.333C228.071 512.28 227.536 511.221 227.015 510.155C226.494 509.089 225.986 508.017 225.491 506.938C224.996 505.86 224.514 504.776 224.046 503.685C223.577 502.595 223.122 501.499 222.681 500.398C222.24 499.297 221.812 498.19 221.397 497.078C220.982 495.966 220.582 494.849 220.195 493.727C219.808 492.606 219.434 491.48 219.075 490.349C218.716 489.218 218.37 488.082 218.039 486.943C217.708 485.804 217.39 484.66 217.086 483.513C216.783 482.366 216.493 481.216 216.218 480.061C215.943 478.907 215.682 477.75 215.435 476.589C215.188 475.428 214.956 474.265 214.737 473.098C214.519 471.932 214.315 470.763 214.125 469.592C213.936 468.421 213.76 467.247 213.599 466.071C213.438 464.896 213.292 463.718 213.16 462.539C213.028 461.36 212.91 460.179 212.807 458.997C209.904 427.62 218.823 394.28 239.227 369.977C257.163 348.613 280.617 336.646 308.342 334.203Z" fill="#FEFEFE"/>
<path d="M328.953 412.76C329.013 412.628 329.076 412.498 329.133 412.365C332.498 404.503 330.96 385.331 328.304 377.058C327.831 375.585 326.453 372.798 328.158 371.894C329.589 372.58 330.048 373.448 330.583 374.931C334.893 386.855 334.299 401.603 332.274 413.892C337.108 406.816 350.586 388.336 358.982 386.471L360.154 386.906L360.327 387.798C358.599 390.166 355.546 391.364 353.29 393.217C346.957 398.417 338.362 407.465 335.661 415.345C334.884 417.626 333.76 419.095 332.287 420.966C329.289 424.775 321.993 448.965 319.529 455.885L319.218 456.604C318.566 458.13 318.059 459.227 318.165 460.942C318.386 464.523 315.313 473.494 312.6 475.808C312.197 476.151 311.945 476.228 311.497 476.419C310.338 476.163 309.781 475.825 309.144 474.768C307.727 472.42 308.521 469.374 309.262 466.922C309.651 465.635 310.197 464.367 310.705 463.122C317.101 454.22 323.527 435.577 326.291 424.822C327.295 420.92 327.085 416.3 328.953 412.76Z" fill="black"/>
<path d="M297.683 430.761C287.511 426.506 280.305 418.09 275.775 408.144C272.408 400.752 269.954 390.535 273.138 382.722C274.999 378.158 278.574 374.797 283.155 373.02C289.277 370.645 297.363 370.711 303.331 373.402C319.28 380.593 323.166 398.103 328.953 412.76C327.085 416.3 327.295 420.92 326.291 424.822C323.527 435.577 317.101 454.22 310.705 463.122C308.356 463.568 304.782 466.354 302.577 467.524C292.604 472.814 282.468 474.052 271.238 473.857C264.489 473.739 255.341 472.903 250.554 467.599C248.244 465.04 247.378 461.785 247.698 458.393C248.493 449.95 255.366 442.501 261.591 437.293C268.048 431.891 277.436 427.357 286.036 428.48C289.655 428.952 293.232 430.441 296.856 430.709C297.132 430.729 297.408 430.743 297.683 430.761Z" fill="#F5D14A"/>
<path d="M335.661 415.345C349.051 406.988 366.045 396.13 382.652 400.143C387.322 401.271 391.651 403.929 394.163 408.107C397.103 412.996 397.343 419.778 395.818 425.168C393.774 432.395 388.263 437.722 381.812 441.185C370.408 447.308 362.656 445.439 350.486 444.552C361.81 447.979 368.886 452.663 374.51 463.276C379.573 472.829 379.949 486.387 376.629 496.559C375.318 500.577 372.929 504.333 368.975 506.152C364.865 508.041 360.313 507.153 356.278 505.524C343.726 500.457 331.491 487.607 326.273 475.223C323.663 469.027 322.633 461.818 319.529 455.885C321.993 448.965 329.289 424.775 332.287 420.966C333.76 419.095 334.884 417.626 335.661 415.345Z" fill="#F5D14A"/>
<path d="M638.11 636.548C612.808 636.406 589.665 626.747 571.869 608.677C557.223 593.805 547.4 575.69 541.625 555.722C539.993 550.078 539.204 542.959 536.628 537.78C532.901 530.288 521.421 526.351 521.379 516.721C521.37 514.704 522.293 513.08 523.784 511.767C526.764 509.143 530.982 508.167 534.474 506.421C543.092 502.112 546.349 492.013 547.237 483.072C548.263 472.756 546.08 462.187 545.626 451.871C544.456 425.328 557.335 401.294 577.493 384.497C603.308 362.988 635.46 353.461 668.855 356.611C669.947 356.713 671.037 356.828 672.126 356.957C673.215 357.086 674.303 357.229 675.388 357.385C676.473 357.541 677.557 357.71 678.638 357.893C679.719 358.076 680.798 358.272 681.874 358.481C682.951 358.691 684.024 358.914 685.095 359.15C686.166 359.386 687.233 359.635 688.298 359.898C689.363 360.161 690.424 360.436 691.482 360.725C692.54 361.014 693.594 361.316 694.644 361.631C695.695 361.946 696.741 362.274 697.783 362.615C698.825 362.956 699.863 363.309 700.896 363.676C701.93 364.043 702.959 364.422 703.983 364.814C705.007 365.206 706.026 365.611 707.04 366.028C708.054 366.446 709.063 366.876 710.066 367.318C711.069 367.761 712.067 368.215 713.059 368.682C714.051 369.149 715.037 369.629 716.018 370.12C716.998 370.612 717.972 371.116 718.94 371.631C719.907 372.147 720.868 372.675 721.823 373.214C722.778 373.753 723.726 374.305 724.667 374.868C725.608 375.431 726.541 376.005 727.468 376.591C728.395 377.178 729.315 377.775 730.227 378.384C731.138 378.993 732.042 379.613 732.939 380.244C733.836 380.875 734.724 381.518 735.605 382.171C736.486 382.824 737.358 383.489 738.223 384.164C739.087 384.839 739.943 385.524 740.79 386.22C741.637 386.917 742.476 387.623 743.305 388.34C744.135 389.057 744.956 389.784 745.767 390.521C746.579 391.258 747.382 392.006 748.175 392.763C748.968 393.52 749.752 394.287 750.526 395.064C751.3 395.841 752.064 396.627 752.819 397.422C753.574 398.217 754.318 399.022 755.053 399.836C755.788 400.65 756.513 401.473 757.227 402.305C757.942 403.137 758.646 403.978 759.339 404.827C775.654 424.534 786.9 450.948 788.819 476.513C790.972 505.201 785.904 529.948 801.477 556.829C808.569 569.072 819.875 580.646 833.967 584.241C840.468 585.899 846.946 586.697 853.114 589.539C876.891 600.492 890.69 627.925 888.341 653.502C888.231 654.588 888.095 655.671 887.933 656.75C887.771 657.829 887.583 658.904 887.369 659.974C887.154 661.044 886.914 662.108 886.649 663.167C886.383 664.226 886.092 665.277 885.775 666.322C885.459 667.367 885.117 668.403 884.75 669.431C884.383 670.459 883.992 671.477 883.576 672.486C883.16 673.495 882.72 674.494 882.256 675.482C881.791 676.469 881.303 677.445 880.792 678.409C880.281 679.374 879.746 680.325 879.188 681.263C878.631 682.201 878.051 683.125 877.448 684.036C876.846 684.946 876.222 685.841 875.577 686.721C874.931 687.601 874.264 688.465 873.577 689.313C872.89 690.16 872.182 690.991 871.455 691.805C870.727 692.618 869.98 693.414 869.214 694.191C868.448 694.968 867.664 695.727 866.861 696.466C866.058 697.205 865.237 697.925 864.4 698.625C852.342 708.514 839.01 712.727 823.604 713.857C858.356 761.899 876.479 818.413 882.743 877.022L913.478 876.988C917.659 876.98 922.369 876.428 926.475 876.947C927.897 877.127 929.046 877.603 930.282 878.299L930.422 878.793C927.909 880.215 771.125 879.599 754.465 879.519C753.606 863.513 753.397 847.93 751.065 832.01C750.182 825.982 743.649 798.554 744.661 795.604C746.564 796.696 747.516 800.303 748.041 802.344C754.266 826.524 756.706 852.029 756.853 876.934L879.56 877.04C879.104 867.405 877.475 857.756 875.86 848.259C867.709 800.308 849.471 753.09 820.193 714.048C797.751 711.991 782.452 703.571 767.967 686.164C766.99 685.012 766.045 683.834 765.132 682.631C747.617 682.18 731.126 677.947 715.984 668.984C711.248 666.181 706.912 662.717 702.166 659.95C696.001 660.177 689.848 660.385 683.761 661.485C656.206 666.467 632.15 683.681 613.432 703.882C570.863 749.822 551.489 818.342 547.498 879.51C536.6 880.632 525.179 879.959 514.212 879.933L457.193 879.896L343.43 879.952C325.858 879.952 308.202 880.351 290.643 880.021C288.596 879.982 286.669 879.786 284.745 879.066L284.009 878.283L284.437 877.919L284.652 878.327L285.29 878.428L285.629 877.327L286.168 877.697C305.902 876.656 326.016 877.446 345.791 877.46L462.763 877.431C455.157 855.711 446.568 834.222 438.1 812.824C432.126 797.727 426.594 781.776 418.53 767.634C409.976 752.634 395.055 742.352 388.019 726.213C384.699 718.599 383.243 712.21 386.347 704.172C384.551 699.999 384.069 696.367 385.762 692.038C387.067 688.706 389.207 686.066 391.695 683.548C387.076 679.236 382.206 674.329 382.063 667.566C381.999 664.549 383.21 661.093 385.333 658.919C385.82 658.421 386.34 657.959 386.862 657.499C381.569 652.489 375.01 647.077 374.587 639.225C374.399 635.729 375.712 632.386 378.091 629.842C378.446 629.466 378.819 629.109 379.21 628.77C379.601 628.432 380.008 628.115 380.432 627.818C380.855 627.522 381.293 627.248 381.744 626.996C382.196 626.745 382.659 626.517 383.134 626.312C383.609 626.108 384.094 625.929 384.587 625.774C385.08 625.619 385.58 625.49 386.086 625.386C386.593 625.283 387.103 625.205 387.618 625.154C388.133 625.103 388.648 625.078 389.165 625.079C389.504 625.081 389.843 625.093 390.182 625.1L390.407 624.622C390.158 620.29 378.479 598.328 376.101 592.096C384.216 589.619 392.561 583.374 399.681 578.83C400.786 582.316 414.009 612.292 415.46 613.32L415.765 613.089C416.877 608.357 419.117 603.475 423.393 600.787C425.259 599.614 427.489 599.197 429.62 599.837C434.021 601.158 444.89 617.416 449.175 622.075C459.642 633.456 474.672 637.919 481.757 652.425C490.67 670.673 489.095 692.05 495.251 711.048C501.044 728.929 522.93 758.16 534.315 774.925C541.759 785.888 548.88 797.22 556.604 807.975C559.914 796.985 562.993 785.944 567.206 775.255C583.127 734.854 610.533 692.315 649.69 671.245C650.973 670.558 652.264 669.888 653.565 669.237C648.639 658.239 643.135 647.504 638.11 636.548Z" fill="black"/>
<path d="M389.723 659.323C401.454 666.58 414.768 669.401 424.315 679.9C426.935 682.781 429.686 686.506 429.352 690.615C429.055 694.263 427.034 696.517 424.301 698.699C415.486 694.958 395.784 684.625 389.492 677.549C386.973 674.717 384.555 671.036 384.889 667.063C385.194 663.452 387.024 661.504 389.723 659.323Z" fill="#FEFEFE"/>
<path d="M393.46 685.802C393.706 685.848 393.959 685.863 394.198 685.939C397.582 687.019 401.32 689.547 404.489 691.246C413.581 696.123 430.936 704.194 434.78 714.14C435.67 716.444 435.329 718.313 434.367 720.507C433.291 721.653 432.147 721.8 430.682 722.134C422.171 720.785 396.569 709.988 390.384 704.144C388.349 702.222 387.316 699.808 387.292 697.004C387.251 692.309 390.346 688.89 393.46 685.802Z" fill="#FEFEFE"/>
<path d="M387.342 627.525C388.087 627.547 388.826 627.589 389.563 627.709C397.748 629.045 409.888 642.128 414.423 648.667C417.085 652.506 420.241 658.503 419.133 663.289C418.811 664.683 418.032 665.575 416.819 666.311C414.882 667.487 412.71 666.835 410.671 666.374C408.692 665.788 406.699 665.092 404.798 664.287C395.035 660.154 381.697 652.432 377.79 641.889C376.867 639.397 376.514 636.645 377.748 634.192C379.517 630.679 383.794 628.656 387.342 627.525Z" fill="#FEFEFE"/>
<path d="M673.286 626.478C676.426 629.239 680.046 635.833 682.826 639.445C687.814 645.929 693.388 651.842 699.334 657.449C687.242 657.667 676.172 660.068 664.874 664.227L655.961 667.75C650.905 657.266 645.759 646.85 640.974 636.237C652.591 634.284 662.578 631.35 673.286 626.478Z" fill="#FEFEFE"/>
<path d="M376.101 592.096C384.216 589.619 392.561 583.374 399.681 578.83C400.786 582.316 414.009 612.292 415.46 613.32L415.765 613.089C415.916 616.662 415.504 624.274 418.318 626.909C418.464 627.046 418.637 627.15 418.796 627.271L419.75 627.112C418.184 620.294 417.6 611.993 421.589 605.853C422.604 604.292 424.237 602.613 426.202 602.408C428.215 602.198 429.963 603.072 431.458 604.352C434.812 607.225 437.226 611.603 439.88 615.108C442.587 618.661 445.504 622.032 448.631 625.222C457.299 633.973 471.022 639.269 477.251 649.781C488.308 668.442 486.495 691.785 492.794 711.985C494.729 718.19 497.87 724.139 501.141 729.731C511.257 747.028 523.462 763.53 534.617 780.214L548.239 800.583C550.609 804.119 552.919 808.179 555.706 811.388C553.051 823.091 550.14 834.766 548.261 846.627C546.653 856.778 545.923 866.971 545.18 877.21C534.823 877.678 524.427 877.436 514.061 877.427L465.606 877.363C459.884 860.036 452.636 843.043 446.049 826.014C441.928 815.394 437.735 804.803 433.469 794.241C429.626 784.675 425.953 774.945 420.695 766.04C412.362 751.929 398.351 742.047 391.288 727.013C387.924 719.852 386.871 714.026 387.726 706.12C395.522 711.688 422.86 725.637 432.133 724.377C433.192 724.233 434.133 723.889 435.117 723.49C435.238 723.339 435.362 723.191 435.48 723.038C437.285 720.726 437.912 717.932 437.45 715.035C436.482 708.962 431.13 704.256 426.416 700.831C427.395 699.805 428.447 698.801 429.306 697.669C429.548 697.346 429.774 697.011 429.985 696.666C430.195 696.321 430.388 695.967 430.564 695.604C430.741 695.24 430.899 694.869 431.04 694.49C431.181 694.111 431.303 693.727 431.407 693.337C431.511 692.946 431.596 692.552 431.662 692.153C431.728 691.754 431.775 691.354 431.803 690.951C431.831 690.548 431.839 690.144 431.828 689.74C431.817 689.337 431.787 688.934 431.738 688.533C430.685 680.43 422.504 673.913 416.387 669.354C418.368 668.203 420.223 667.045 421.206 664.877C422.685 661.617 422.112 658.034 420.87 654.804C417.504 646.056 406.609 634.245 398.824 629.366C396.16 627.697 393.068 626.347 390.182 625.1L390.407 624.622C390.158 620.29 378.479 598.328 376.101 592.096Z" fill="#FEFEFE"/>
<path d="M376.101 592.096C384.216 589.619 392.561 583.374 399.681 578.83C400.786 582.316 414.009 612.292 415.46 613.32L415.765 613.089C415.916 616.662 415.504 624.274 418.318 626.909C418.464 627.046 418.637 627.15 418.796 627.271L419.75 627.112C423.408 636.066 428.076 644.696 432.226 653.437C439.756 669.292 447.174 685.216 454.92 700.965C458.605 708.457 466.728 722.658 468.853 730.028C469.544 732.425 469.21 735.005 468.191 737.265C466.435 741.159 462.696 744.127 458.729 745.551C455.497 746.712 451.581 747.007 448.402 745.509C446.718 744.715 445.404 743.449 444.322 741.952C442.063 738.827 436.394 727.084 435.117 723.49C435.238 723.339 435.362 723.191 435.48 723.038C437.285 720.726 437.912 717.932 437.45 715.035C436.482 708.962 431.13 704.256 426.416 700.831C427.395 699.805 428.447 698.801 429.306 697.669C429.548 697.346 429.774 697.011 429.985 696.666C430.195 696.321 430.388 695.967 430.564 695.604C430.741 695.24 430.899 694.869 431.04 694.49C431.181 694.111 431.303 693.727 431.407 693.337C431.511 692.946 431.596 692.552 431.662 692.153C431.728 691.754 431.775 691.354 431.803 690.951C431.831 690.548 431.839 690.144 431.828 689.74C431.817 689.337 431.787 688.934 431.738 688.533C430.685 680.43 422.504 673.913 416.387 669.354C418.368 668.203 420.223 667.045 421.206 664.877C422.685 661.617 422.112 658.034 420.87 654.804C417.504 646.056 406.609 634.245 398.824 629.366C396.16 627.697 393.068 626.347 390.182 625.1L390.407 624.622C390.158 620.29 378.479 598.328 376.101 592.096Z" fill="#4466AE"/>
<path d="M646.081 358.698C652.504 357.653 660.03 358.215 666.48 358.82C727.62 364.548 776.776 409.555 785.72 470.63C786.916 478.794 786.798 486.941 786.81 495.164C786.841 517.681 787.845 539.213 799.778 559.138C806.426 570.237 816.47 580.938 828.898 585.439C833.346 587.049 838.246 587.64 842.841 588.775C853.993 591.53 864.082 598.722 871.3 607.559C881.707 620.301 887.485 636.933 885.658 653.452C883.806 670.199 875.551 686.287 862.325 696.852C861.491 697.528 860.64 698.182 859.773 698.815C858.906 699.448 858.024 700.059 857.126 700.648C856.228 701.237 855.316 701.802 854.389 702.344C853.463 702.887 852.524 703.406 851.571 703.901C850.618 704.396 849.654 704.866 848.677 705.312C847.701 705.759 846.714 706.18 845.716 706.577C844.719 706.974 843.712 707.345 842.695 707.69C841.678 708.036 840.654 708.356 839.622 708.65C838.589 708.944 837.55 709.212 836.504 709.453C835.458 709.694 834.406 709.909 833.349 710.098C832.292 710.286 831.231 710.448 830.166 710.583C829.101 710.718 828.034 710.826 826.963 710.907C825.892 710.988 824.82 711.041 823.747 711.068C822.674 711.095 821.601 711.095 820.528 711.068C819.455 711.041 818.383 710.986 817.312 710.905C816.241 710.824 815.174 710.715 814.109 710.58C793.605 708.104 778.861 695.801 766.474 680.096C742.976 679.985 722.233 672.071 703.845 657.503C682.039 640.226 664.754 611.553 660.071 584.019C658.562 575.149 659.256 567.158 658.263 558.637L657.48 558.065L656.599 558.358C656.237 558.94 656.219 558.907 655.963 559.671C655.134 562.155 655.8 566.221 655.934 568.829C656.816 586.065 661.193 601.9 668.774 617.366L671.915 623.902C670.782 624.567 669.601 625.142 668.422 625.718C649.173 635.117 628.2 636.066 608.081 628.994C584.257 620.62 564.28 601.049 553.429 578.486C554.32 578.327 555.21 578.159 556.097 577.982C565.2 576.156 574.632 571.432 579.592 563.202C580.255 562.103 580.422 561.529 580.158 560.291C577.952 559.495 573.815 566.072 572.016 567.649C566.213 572.738 559.869 574.73 552.395 576.054C550.486 572.315 548.773 568.488 547.254 564.575C545.735 560.662 544.418 556.681 543.304 552.634C541.912 547.612 541.336 540.584 538.757 536.117C536.09 531.498 530.545 527.782 527.114 523.616C525.718 521.921 523.076 518.371 523.74 515.954C524.852 511.904 535.275 509.603 538.702 507.049C557.571 492.988 546.058 457.411 548.995 437.177C552.039 416.198 565.399 396.913 582.132 384.353C584.361 398.49 590.395 412.49 597.564 424.831C610.511 447.117 628.401 465.167 652.137 475.758C656.043 477.501 660.086 479.515 664.228 480.594C667.545 481.457 678.096 484.584 681.054 482.851L680.984 483.35L681.314 483.306L681.513 481.621C678.26 479.301 668.188 478.906 663.77 477.545C654.474 474.682 645.394 470.168 637.339 464.733C610.024 446.304 590.307 414.682 584.151 382.413C602.713 368.519 623.163 361.184 646.081 358.698Z" fill="#FEFEFE"/>
<path d="M581.061 495.403C581.572 495.438 581.962 495.448 582.451 495.529C583.883 495.765 585.25 496.76 585.958 498.027C586.529 499.048 586.582 500.204 586.324 501.319C585.883 503.229 584.612 504.112 583.092 505.154C581.234 504.959 579.428 504.728 578.189 503.132C577.434 502.16 577.164 500.837 577.43 499.641C577.903 497.507 579.306 496.492 581.061 495.403Z" fill="black"/>
<path d="M683.661 488.611C686.092 488.62 688.404 488.913 690.74 489.592C691.055 489.686 691.368 489.788 691.679 489.898C691.99 490.008 692.297 490.126 692.601 490.252C692.905 490.378 693.206 490.512 693.504 490.653C693.801 490.794 694.095 490.943 694.385 491.099C694.674 491.256 694.96 491.419 695.242 491.59C695.523 491.761 695.8 491.939 696.072 492.124C696.345 492.309 696.612 492.501 696.875 492.7C697.137 492.899 697.394 493.105 697.646 493.317C697.898 493.529 698.144 493.747 698.385 493.972C698.626 494.197 698.861 494.427 699.09 494.664C699.319 494.901 699.541 495.143 699.758 495.391C699.975 495.639 700.185 495.893 700.388 496.152C700.591 496.411 700.788 496.674 700.978 496.943C701.169 497.212 701.352 497.486 701.527 497.764C701.704 498.043 701.873 498.325 702.034 498.612C702.195 498.899 702.349 499.19 702.496 499.485C702.645 499.782 702.787 500.083 702.921 500.387C703.055 500.691 703.182 500.998 703.301 501.308C703.42 501.618 703.532 501.931 703.635 502.247C703.739 502.563 703.835 502.881 703.922 503.201C704.01 503.522 704.09 503.844 704.162 504.169C704.234 504.494 704.298 504.82 704.354 505.147C704.409 505.475 704.457 505.804 704.497 506.134C704.536 506.464 704.568 506.795 704.591 507.126C704.614 507.457 704.629 507.789 704.636 508.122C704.643 508.454 704.641 508.786 704.632 509.118C704.622 509.451 704.604 509.783 704.578 510.114C704.552 510.445 704.518 510.776 704.476 511.105C704.433 511.434 704.383 511.763 704.324 512.09C704.265 512.417 704.199 512.743 704.124 513.067C704.049 513.39 703.967 513.712 703.876 514.032C703.785 514.352 703.687 514.669 703.581 514.984C701.85 520.094 697.778 524.622 692.922 526.974C688.627 529.054 683.322 528.886 678.884 527.362C676.483 526.537 672.689 524.814 671.506 522.435L672.083 522.059C674.935 522.294 677.055 523.789 679.525 525.147C682.191 525.679 684.717 526.081 687.445 525.665C692.247 524.935 696.486 522.072 699.195 518.074C699.528 517.588 699.837 517.086 700.12 516.568C700.403 516.051 700.659 515.52 700.888 514.977C701.117 514.434 701.319 513.88 701.492 513.317C701.665 512.753 701.809 512.182 701.925 511.604C702.04 511.026 702.126 510.443 702.183 509.856C702.24 509.269 702.267 508.681 702.264 508.091C702.261 507.502 702.229 506.914 702.167 506.327C702.104 505.741 702.013 505.159 701.892 504.582C701.011 500.268 698.362 496.678 694.675 494.318C689.158 490.787 683.015 490.562 677.054 493.139C675.441 493.837 673.529 495.193 671.811 495.447C671.122 495.549 670.848 495.002 670.369 494.571L670.512 493.569C673.302 490.73 679.775 489.264 683.661 488.611Z" fill="black"/>
</g>
<defs>
<clipPath id="clip0_605_196">
<rect width="1024" height="1024" fill="white"/>
</clipPath>
</defs>
</svg>
